<svg xmlns="http://www.w3.org/2000/svg" width="50.008" height="23" viewBox="0 0 50.008 23">
  <g id="Add" transform="translate(0 2)">
    <rect id="Rectangle_608" data-name="Rectangle 608" width="50.008" height="23" rx="3" transform="translate(0 -2)" fill="#1f2123"/>
    <path id="Path_2997" data-name="Path 2997" d="M52.98,26.469v1.97l-.021.221-.068.178-.087.176-.112.132-.155.135-.176.087-.178.068-.2.021H47.754v4.3l-.023.2-.043.176-.112.178-.132.132-.132.132-.178.112-.155.043-.221.023h-1.95l-.2-.023-.176-.043-.155-.112-.178-.132-.112-.132-.087-.178-.046-.176-.021-.2v-4.3H39.58l-.178-.021-.2-.068-.155-.087-.155-.135-.132-.132-.066-.176-.066-.178-.023-.221v-1.97l.023-.2.066-.176.066-.178.132-.155.155-.11.155-.112.2-.043.178-.023h4.253v-4.32l.021-.2.046-.178.087-.176.112-.155.178-.112.155-.087.176-.068.2-.021h1.95l.221.021.155.068.178.087.132.112.132.155.112.176.043.178.023.2v4.32h4.231l.2.023.178.043.176.112.155.11.112.155.087.178.068.176.021.2Z" transform="translate(-37.147 -18.156)" fill="#71a376" fill-rule="evenodd"/>
    <g id="Group_1731" data-name="Group 1731" transform="translate(45.098 14.198)">
      <line id="Line_651" data-name="Line 651" x2="2.902" transform="translate(0 2.902)" fill="none" stroke="#707070" stroke-linecap="round" stroke-width="1"/>
      <line id="Line_652" data-name="Line 652" y2="2.902" transform="translate(2.902)" fill="none" stroke="#707070" stroke-linecap="round" stroke-width="1"/>
    </g>
  </g>
</svg>
