<svg xmlns="http://www.w3.org/2000/svg" width="12.652" height="11.782" viewBox="0 0 12.652 11.782">
  <g id="Animation_Key" data-name="Animation Key" transform="translate(-6032.475 -271.155)">
    <path id="Path_2890" data-name="Path 2890" d="M394.441,245.663v6.971l-.014.2-.032.2-.046.185-.062.2-.077.171-.109.171-.125.169-.139.155-.155.155-.171.125-.169.109-.171.077-.187.062-.185.062-.2.03h-7.283l-.185-.03-.2-.062-.187-.062-.169-.077-.171-.109-.171-.125-.155-.155-.139-.155-.125-.169-.109-.171-.077-.171-.062-.2-.046-.185-.03-.2-.016-.2v-6.971l.016-.2.03-.217.046-.185.062-.187.077-.185.109-.171.125-.155.139-.171.155-.139.171-.139.171-.094.169-.093.187-.062.2-.046.185-.03H392.6l.2.03.185.046.187.062.171.093.169.094.171.139.155.139.139.171.125.155.109.171.077.185.062.187.046.185.032.217Z" transform="translate(5649.546 27.568)" fill="#aa6060" fill-rule="evenodd"/>
    <path id="Path_2895" data-name="Path 2895" d="M-1.514,5.514A11.277,11.277,0,0,1,2.708.611,10.014,10.014,0,0,1,8.7-.635" transform="translate(6035.292 276.119)" fill="none" stroke="#323434" stroke-linecap="round" stroke-width="2"/>
  </g>
</svg>
