<svg xmlns="http://www.w3.org/2000/svg" width="10.969" height="11.124" viewBox="0 0 10.969 11.124">
  <path id="Changed_value" data-name="Changed value" d="M394.441,245.663v6.971l-.014.2-.032.2-.046.185-.062.2-.077.171-.109.171-.125.169-.139.155-.155.155-.171.125-.169.109-.171.077-.187.062-.185.062-.2.03h-7.283l-.185-.03-.2-.062-.187-.062-.169-.077-.171-.109-.171-.125-.155-.155-.139-.155-.125-.169-.109-.171-.077-.171-.062-.2-.046-.185-.03-.2-.016-.2v-6.971l.016-.2.03-.217.046-.185.062-.187.077-.185.109-.171.125-.155.139-.171.155-.139.171-.139.171-.094.169-.093.187-.062.2-.046.185-.03H392.6l.2.03.185.046.187.062.171.093.169.094.171.139.155.139.139.171.125.155.109.171.077.185.062.187.046.185.032.217Z" transform="translate(-383.473 -243.587)" fill="#4f7da0" fill-rule="evenodd"/>
</svg>
