<svg xmlns="http://www.w3.org/2000/svg" width="12.373" height="12.603" viewBox="0 0 12.373 12.603">
  <g id="Mute_Channel" data-name="Mute Channel" transform="translate(-5798.899 -117.5)">
    <circle id="Ellipse_43" data-name="Ellipse 43" cx="6" cy="6" r="6" transform="translate(5799 118)" fill="#1f2123"/>
    <path id="Path_2981" data-name="Path 2981" d="M257.39,186.571l-.018-.332-.034-.315-.052-.313-.07-.3-.1-.3-.122-.3-.141-.279-.175-.279-6.048,6.151.281.175.279.141.279.141.3.086.315.088.3.052.313.034.333.018.418-.034.456-.07.4-.1.42-.159.384-.193.349-.227.35-.243.3-.281.279-.313.263-.35.209-.386.193-.384.157-.42.1-.42.054-.454ZM249.35,189l6.082-6.152-.279-.175-.3-.157-.3-.122-.3-.1-.3-.088-.313-.052-.3-.052h-.629l-.3.034-.279.052-.3.07-.263.088-.261.086-.263.122-.245.141-.245.157-.227.157-.245.211-.191.175-.193.209-.193.245-.157.227-.157.245-.122.261-.123.263-.1.279-.088.263-.07.313-.034.281-.034.3-.018.3.018.315.034.315.052.313.088.315.086.3.141.3.139.3Zm9.352-4.877.1.279.1.3.086.315.07.3.052.315.036.313.016.315.018.313-.018.315-.016.3-.036.315-.052.313-.07.3-.086.315-.1.3-.1.279-.141.3-.122.279-.157.279-.159.245-.175.245-.175.245-.191.209-.193.227-.209.211-.245.175-.227.209-.229.157-.261.175-.245.141-.279.141-.279.123-.281.121-.3.106-.3.087-.3.07-.3.07-.315.034-.3.018-.313.018-.315-.018-.315-.018-.313-.034-.3-.07-.3-.07-.3-.087-.279-.106-.3-.121-.279-.123-.281-.141-.261-.141-.263-.175-.227-.157-.227-.209-.227-.175-.209-.211-.193-.227-.193-.209-.193-.245-.157-.245-.175-.245-.141-.279-.139-.279-.123-.3-.123-.279-.1-.3-.07-.315-.07-.3-.07-.313-.034-.315-.018-.3-.016-.315.016-.313.018-.315.034-.313.07-.315.07-.3.07-.315.1-.3.123-.279.123-.3.139-.261.141-.279.175-.263.157-.245.193-.227.193-.227.193-.227.209-.193.227-.193.227-.191.227-.159.263-.175.261-.139.281-.159.279-.121.3-.122.279-.088.3-.086.3-.088.3-.052.313-.034.315-.018h.629l.3.018.315.034.3.052.3.088.3.086.3.088.281.122.279.121.279.159.245.139.261.175.229.159.227.191.245.193.209.193.193.227.191.227.175.227.175.245.159.263.157.279.122.261Z" transform="translate(5552.083 -62.78)" fill="#717070" fill-rule="evenodd"/>
  </g>
</svg>
